<?xml version="1.0" standalone="no"?>
<!DOCTYPE svg PUBLIC "-//W3C//DTD SVG 20010904//EN"
 "http://www.w3.org/TR/2001/REC-SVG-20010904/DTD/svg10.dtd">
<svg version="1.0" xmlns="http://www.w3.org/2000/svg"
 width="512.000000pt" height="512.000000pt" viewBox="0 0 512.000000 512.000000"
 preserveAspectRatio="xMidYMid meet">
<metadata>
Created by potrace 1.14, written by Peter Selinger 2001-2017
</metadata>
<g transform="translate(0.000000,512.000000) scale(0.100000,-0.100000)"
fill="#000000" stroke="none">
<path d="M1401 4436 c-8 -10 -71 -173 -85 -221 -2 -5 -6 -17 -9 -25 -4 -8 -16
-42 -27 -75 -12 -33 -24 -67 -27 -75 -4 -8 -7 -18 -8 -22 -2 -5 -4 -10 -5 -13
-1 -3 -3 -8 -4 -12 -1 -5 -4 -12 -7 -18 -4 -5 -14 -35 -24 -65 -10 -30 -21
-59 -25 -65 -5 -5 -9 -13 -9 -17 -1 -5 -1 -9 -2 -10 0 -2 -2 -10 -4 -18 -2 -8
-34 -96 -70 -195 -37 -99 -68 -184 -69 -190 -1 -5 -10 -27 -19 -49 -9 -21 -17
-43 -17 -48 0 -5 -9 -29 -20 -54 -12 -24 -18 -49 -15 -54 3 -6 3 -10 -2 -10
-7 0 -18 -27 -37 -85 -2 -5 -9 -23 -15 -40 -7 -16 -14 -37 -16 -45 -7 -28 -36
-102 -50 -130 -8 -15 -11 -30 -8 -33 3 -4 1 -12 -5 -19 -5 -7 -22 -49 -37 -93
-15 -44 -32 -88 -37 -98 -5 -10 -11 -26 -13 -35 -3 -15 -96 -273 -112 -312 -3
-8 -7 -22 -9 -30 -2 -8 -7 -23 -13 -35 -5 -11 -21 -54 -36 -95 -15 -41 -33
-88 -40 -105 -7 -16 -16 -41 -20 -55 -3 -14 -10 -34 -15 -45 -5 -11 -38 -103
-75 -205 -36 -102 -70 -194 -74 -205 -5 -11 -19 -49 -32 -85 -12 -36 -27 -76
-32 -90 -6 -14 -11 -31 -13 -38 -1 -8 -6 -21 -10 -30 -4 -9 -8 -19 -8 -22 -2
-7 -26 -71 -39 -100 -5 -14 -12 -31 -14 -37 -8 -30 -10 -39 -18 -58 -36 -92
-55 -144 -61 -170 -4 -16 -10 -32 -13 -35 -4 -3 -12 -21 -18 -40 -6 -19 -22
-65 -36 -102 l-26 -68 592 0 592 0 18 53 c9 28 19 57 21 62 2 6 5 17 8 25 3 8
16 44 29 80 12 36 27 71 32 78 5 6 7 12 3 12 -3 0 1 17 10 38 8 20 22 57 31
82 8 25 20 56 26 70 5 14 11 30 13 35 7 30 58 162 66 171 5 7 8 16 7 20 -1 5
1 16 4 24 11 26 199 544 202 555 2 12 20 59 41 105 8 20 16 42 18 50 2 8 6 22
9 30 4 8 18 49 32 90 14 41 30 82 34 90 5 9 12 30 15 48 4 17 12 34 17 37 5 4
9 12 9 20 0 8 5 26 12 42 6 15 12 33 14 38 1 6 13 38 26 73 l24 62 21 -47 c11
-27 62 -154 113 -283 51 -129 98 -248 105 -265 7 -16 25 -61 40 -100 15 -38
33 -83 40 -100 8 -16 25 -61 39 -100 15 -38 30 -79 35 -90 15 -35 64 -157 65
-165 2 -6 234 -595 251 -635 13 -31 27 -66 30 -75 1 -3 9 -23 18 -44 10 -22
20 -50 23 -63 l6 -23 503 0 c392 0 506 3 512 13 4 6 22 55 40 107 18 52 37
104 43 115 5 11 22 58 39 105 16 47 45 128 65 180 19 52 40 111 47 130 11 32
26 73 45 125 4 11 8 25 10 30 3 12 62 171 73 200 26 64 59 156 66 185 1 3 7
19 14 35 7 17 14 35 15 40 1 6 9 26 18 45 8 19 18 47 21 62 4 15 12 40 19 55
6 15 12 30 12 33 1 3 14 38 30 78 15 39 29 78 30 85 3 12 7 24 33 87 8 19 16
42 18 50 3 13 72 205 160 440 13 36 60 166 105 290 44 124 85 234 90 245 7 16
18 49 25 75 1 3 5 12 8 20 7 16 52 139 122 335 24 66 55 150 68 187 14 36 23
69 19 72 -3 3 -1 6 5 6 6 0 14 12 18 28 3 15 28 86 54 157 68 182 66 175 42
175 -12 0 -21 -6 -21 -12 0 -8 -3 -9 -8 -3 -11 15 -32 17 -47 5 -9 -7 -15 -7
-19 -1 -9 14 -87 12 -79 -3 3 -6 0 -6 -8 2 -17 16 -32 16 -23 0 6 -10 5 -10
-7 -1 -16 13 -86 13 -106 0 -6 -4 -14 -3 -18 2 -8 14 -86 11 -78 -3 3 -6 0 -6
-8 2 -17 16 -32 16 -23 0 6 -10 5 -10 -7 -1 -15 12 -86 13 -105 1 -6 -4 -14
-4 -18 0 -11 11 -95 12 -102 1 -3 -5 -11 -6 -17 -2 -17 11 -136 12 -143 2 -3
-5 -11 -6 -17 -2 -17 11 -136 12 -143 2 -3 -5 -11 -6 -17 -2 -7 4 -40 8 -75 9
-59 2 -63 0 -77 -27 -8 -15 -15 -35 -15 -44 0 -8 -5 -15 -12 -15 -6 0 -9 -3
-5 -6 3 -3 1 -18 -5 -33 -5 -14 -28 -75 -49 -136 -22 -60 -43 -119 -49 -130
-5 -11 -22 -58 -38 -105 -48 -137 -112 -313 -122 -335 -9 -21 -19 -53 -21 -70
0 -5 -5 -18 -11 -28 -9 -17 -147 -389 -152 -412 -2 -5 -7 -19 -11 -30 -4 -11
-14 -35 -21 -54 -8 -18 -14 -42 -14 -51 0 -10 -3 -20 -7 -22 -7 -2 -57 -132
-67 -173 -2 -5 -6 -17 -9 -25 -7 -15 -64 -171 -94 -258 -8 -24 -17 -41 -19
-39 -11 11 -101 246 -96 251 3 3 1 6 -5 6 -5 0 -16 19 -22 43 -7 23 -24 66
-37 95 -13 29 -24 57 -24 62 0 6 -4 18 -10 28 -8 14 -27 57 -35 82 -1 3 -5 14
-10 25 -4 11 -45 115 -91 230 -46 116 -88 224 -95 240 -7 17 -13 32 -14 35 -1
3 -6 16 -12 30 -6 14 -21 53 -33 88 -12 34 -26 62 -29 62 -4 0 -7 8 -8 18 -1
9 -20 62 -43 117 -23 55 -43 107 -45 115 -4 15 -48 127 -65 165 -21 46 -42
101 -45 119 -3 10 -9 24 -14 30 -6 7 -12 21 -14 32 -2 10 -11 36 -21 56 -9 21
-16 42 -16 48 0 5 -3 11 -7 11 -46 7 -69 7 -78 -1 -7 -6 -15 -6 -19 -2 -11 10
-135 11 -142 1 -3 -5 -11 -6 -17 -2 -17 11 -130 12 -144 1 -7 -5 -13 -5 -17 0
-7 11 -85 10 -103 -1 -6 -4 -14 -3 -18 2 -8 14 -86 11 -78 -3 3 -6 0 -6 -8 2
-7 6 -17 12 -22 12 -4 0 -5 -6 -1 -12 6 -10 5 -10 -7 -1 -16 13 -86 13 -106 0
-6 -4 -14 -3 -18 2 -8 14 -86 11 -78 -3 3 -6 0 -6 -8 2 -7 6 -17 12 -22 12 -4
0 -5 -6 -1 -12 6 -10 4 -10 -7 -2 -19 15 -96 15 -108 0z"/>
</g>
</svg>
